<svg width="260" height="241" viewBox="0 0 260 241" fill="none" xmlns="http://www.w3.org/2000/svg">
<path fill-rule="evenodd" clip-rule="evenodd" d="M160.073 191.604C179.74 178.99 194.879 159.935 202.515 137.416L244.49 150.256C252.203 152.615 260 146.846 260 138.781V69.0377C260 61.0264 252.3 55.2648 244.614 57.5253L202.305 69.9693C188.209 29.2441 149.52 3.05176e-05 104 3.05176e-05C46.5624 3.05176e-05 0 46.5624 0 104C0 159.846 44.0171 205.411 99.25 207.893V236.166C99.25 239.605 103.304 241.441 105.889 239.172L160.073 191.604ZM185 104C185 148.735 148.735 185 104 185C59.2649 185 23 148.735 23 104C23 59.265 59.2649 23 104 23C148.735 23 185 59.265 185 104ZM105 117C112.732 117 119 110.732 119 103C119 95.268 112.732 89 105 89C97.268 89 91 95.268 91 103C91 110.732 97.268 117 105 117ZM166 103C166 110.732 159.732 117 152 117C144.268 117 138 110.732 138 103C138 95.268 144.268 89 152 89C159.732 89 166 95.268 166 103ZM58 117C65.732 117 72 110.732 72 103C72 95.268 65.732 89 58 89C50.268 89 44 95.268 44 103C44 110.732 50.268 117 58 117Z" fill="#A598FF"/>
</svg>
